solid cylinder
  facet normal 0.751817 -0.659372 0
    outer loop
       vertex 0.876776 -0.176776 -0.05
       vertex 0.898338 -0.152191 -0.05
       vertex 0.898338 -0.152191 0.05
    endloop
  endfacet
  facet normal 0.751817 -0.659372 0
    outer loop
       vertex 0.898338 -0.152191 0.05
       vertex 0.876776 -0.176776 0.05
       vertex 0.876776 -0.176776 -0.05
    endloop
  endfacet
  facet normal 0.831476 -0.555561 0
    outer loop
       vertex 0.898338 -0.152191 -0.05
       vertex 0.916506 -0.125 -0.05
       vertex 0.916506 -0.125 0.05
    endloop
  endfacet
  facet normal 0.831476 -0.555561 0
    outer loop
       vertex 0.916506 -0.125 0.05
       vertex 0.898338 -0.152191 0.05
       vertex 0.898338 -0.152191 -0.05
    endloop
  endfacet
  facet normal 0.896866 -0.442302 0
    outer loop
       vertex 0.916506 -0.125 -0.05
       vertex 0.93097 -0.095671 -0.05
       vertex 0.93097 -0.095671 0.05
    endloop
  endfacet
  facet normal 0.896866 -0.442302 0
    outer loop
       vertex 0.93097 -0.095671 0.05
       vertex 0.916506 -0.125 0.05
       vertex 0.916506 -0.125 -0.05
    endloop
  endfacet
  facet normal 0.946935 -0.321425 0
    outer loop
       vertex 0.93097 -0.095671 -0.05
       vertex 0.941481 -0.064705 -0.05
       vertex 0.941481 -0.064705 0.05
    endloop
  endfacet
  facet normal 0.946935 -0.321425 0
    outer loop
       vertex 0.941481 -0.064705 0.05
       vertex 0.93097 -0.095671 0.05
       vertex 0.93097 -0.095671 -0.05
    endloop
  endfacet
  facet normal 0.980784 -0.195096 0
    outer loop
       vertex 0.941481 -0.064705 -0.05
       vertex 0.947861 -0.0326315 -0.05
       vertex 0.947861 -0.0326315 0.05
    endloop
  endfacet
  facet normal 0.980784 -0.195096 0
    outer loop
       vertex 0.947861 -0.0326315 0.05
       vertex 0.941481 -0.064705 0.05
       vertex 0.941481 -0.064705 -0.05
    endloop
  endfacet
  facet normal 0.997858 -0.0654098 0
    outer loop
       vertex 0.95 -8.32665e-17 0.05
       vertex 0.947861 -0.0326315 0.05
       vertex 0.947861 -0.0326315 -0.05
    endloop
  endfacet
  facet normal 0.997858 -0.0654098 -1.07752e-16
    outer loop
       vertex 0.947861 -0.0326315 -0.05
       vertex 0.95 8.32665e-17 -0.05
       vertex 0.95 -8.32665e-17 0.05
    endloop
  endfacet
  facet normal 0.997858 0.0654098 0
    outer loop
       vertex 0.95 8.32665e-17 -0.05
       vertex 0.947861 0.0326315 -0.05
       vertex 0.947861 0.0326315 0.05
    endloop
  endfacet
  facet normal 0.997858 0.0654098 1.07752e-16
    outer loop
       vertex 0.947861 0.0326315 0.05
       vertex 0.95 -8.32665e-17 0.05
       vertex 0.95 8.32665e-17 -0.05
    endloop
  endfacet
  facet normal 0.980784 0.195096 0
    outer loop
       vertex 0.947861 0.0326315 -0.05
       vertex 0.941481 0.064705 -0.05
       vertex 0.941481 0.064705 0.05
    endloop
  endfacet
  facet normal 0.980784 0.195096 0
    outer loop
       vertex 0.941481 0.064705 0.05
       vertex 0.947861 0.0326315 0.05
       vertex 0.947861 0.0326315 -0.05
    endloop
  endfacet
  facet normal 0.946935 0.321425 0
    outer loop
       vertex 0.941481 0.064705 -0.05
       vertex 0.93097 0.095671 -0.05
       vertex 0.93097 0.095671 0.05
    endloop
  endfacet
  facet normal 0.946935 0.321425 0
    outer loop
       vertex 0.93097 0.095671 0.05
       vertex 0.941481 0.064705 0.05
       vertex 0.941481 0.064705 -0.05
    endloop
  endfacet
  facet normal 0.896866 0.442302 0
    outer loop
       vertex 0.93097 0.095671 -0.05
       vertex 0.916506 0.125 -0.05
       vertex 0.916506 0.125 0.05
    endloop
  endfacet
  facet normal 0.896866 0.442302 0
    outer loop
       vertex 0.916506 0.125 0.05
       vertex 0.93097 0.095671 0.05
       vertex 0.93097 0.095671 -0.05
    endloop
  endfacet
  facet normal 0.831476 0.555561 0
    outer loop
       vertex 0.916506 0.125 -0.05
       vertex 0.898338 0.152191 -0.05
       vertex 0.898338 0.152191 0.05
    endloop
  endfacet
  facet normal 0.831476 0.555561 0
    outer loop
       vertex 0.898338 0.152191 0.05
       vertex 0.916506 0.125 0.05
       vertex 0.916506 0.125 -0.05
    endloop
  endfacet
  facet normal 0.751817 0.659372 0
    outer loop
       vertex 0.898338 0.152191 -0.05
       vertex 0.876776 0.176776 -0.05
       vertex 0.876776 0.176776 0.05
    endloop
  endfacet
  facet normal 0.751817 0.659372 0
    outer loop
       vertex 0.876776 0.176776 0.05
       vertex 0.898338 0.152191 0.05
       vertex 0.898338 0.152191 -0.05
    endloop
  endfacet
  facet normal 0.659372 0.751817 0
    outer loop
       vertex 0.876776 0.176776 -0.05
       vertex 0.852191 0.198338 -0.05
       vertex 0.852191 0.198338 0.05
    endloop
  endfacet
  facet normal 0.659372 0.751817 0
    outer loop
       vertex 0.852191 0.198338 0.05
       vertex 0.876776 0.176776 0.05
       vertex 0.876776 0.176776 -0.05
    endloop
  endfacet
  facet normal 0.555561 0.831476 0
    outer loop
       vertex 0.852191 0.198338 -0.05
       vertex 0.825 0.216506 -0.05
       vertex 0.825 0.216506 0.05
    endloop
  endfacet
  facet normal 0.555561 0.831476 0
    outer loop
       vertex 0.825 0.216506 0.05
       vertex 0.852191 0.198338 0.05
       vertex 0.852191 0.198338 -0.05
    endloop
  endfacet
  facet normal 0.442302 0.896866 0
    outer loop
       vertex 0.825 0.216506 -0.05
       vertex 0.795671 0.23097 -0.05
       vertex 0.795671 0.23097 0.05
    endloop
  endfacet
  facet normal 0.442302 0.896866 0
    outer loop
       vertex 0.795671 0.23097 0.05
       vertex 0.825 0.216506 0.05
       vertex 0.825 0.216506 -0.05
    endloop
  endfacet
  facet normal 0.321425 0.946935 0
    outer loop
       vertex 0.795671 0.23097 -0.05
       vertex 0.764705 0.241481 -0.05
       vertex 0.764705 0.241481 0.05
    endloop
  endfacet
  facet normal 0.321425 0.946935 0
    outer loop
       vertex 0.764705 0.241481 0.05
       vertex 0.795671 0.23097 0.05
       vertex 0.795671 0.23097 -0.05
    endloop
  endfacet
  facet normal 0.195096 0.980784 0
    outer loop
       vertex 0.764705 0.241481 -0.05
       vertex 0.732632 0.247861 -0.05
       vertex 0.732632 0.247861 0.05
    endloop
  endfacet
  facet normal 0.195096 0.980784 0
    outer loop
       vertex 0.732632 0.247861 0.05
       vertex 0.764705 0.241481 0.05
       vertex 0.764705 0.241481 -0.05
    endloop
  endfacet
  facet normal 0.0654098 0.997858 0
    outer loop
       vertex 0.7 0.25 0.05
       vertex 0.732632 0.247861 0.05
       vertex 0.732632 0.247861 -0.05
    endloop
  endfacet
  facet normal 0.0654098 0.997858 -1.49195e-16
    outer loop
       vertex 0.732632 0.247861 -0.05
       vertex 0.7 0.25 -0.05
       vertex 0.7 0.25 0.05
    endloop
  endfacet
  facet normal -0.0654098 0.997858 0
    outer loop
       vertex 0.7 0.25 -0.05
       vertex 0.667368 0.247861 -0.05
       vertex 0.667368 0.247861 0.05
    endloop
  endfacet
  facet normal -0.0654098 0.997858 1.49195e-16
    outer loop
       vertex 0.667368 0.247861 0.05
       vertex 0.7 0.25 0.05
       vertex 0.7 0.25 -0.05
    endloop
  endfacet
  facet normal -0.195096 0.980784 0
    outer loop
       vertex 0.667368 0.247861 -0.05
       vertex 0.635295 0.241481 -0.05
       vertex 0.635295 0.241481 0.05
    endloop
  endfacet
  facet normal -0.195096 0.980784 0
    outer loop
       vertex 0.635295 0.241481 0.05
       vertex 0.667368 0.247861 0.05
       vertex 0.667368 0.247861 -0.05
    endloop
  endfacet
  facet normal -0.321425 0.946935 0
    outer loop
       vertex 0.635295 0.241481 -0.05
       vertex 0.604329 0.23097 -0.05
       vertex 0.604329 0.23097 0.05
    endloop
  endfacet
  facet normal -0.321425 0.946935 0
    outer loop
       vertex 0.604329 0.23097 0.05
       vertex 0.635295 0.241481 0.05
       vertex 0.635295 0.241481 -0.05
    endloop
  endfacet
  facet normal -0.442302 0.896866 0
    outer loop
       vertex 0.604329 0.23097 -0.05
       vertex 0.575 0.216506 -0.05
       vertex 0.575 0.216506 0.05
    endloop
  endfacet
  facet normal -0.442302 0.896866 0
    outer loop
       vertex 0.575 0.216506 0.05
       vertex 0.604329 0.23097 0.05
       vertex 0.604329 0.23097 -0.05
    endloop
  endfacet
  facet normal -0.555561 0.831476 0
    outer loop
       vertex 0.575 0.216506 -0.05
       vertex 0.547809 0.198338 -0.05
       vertex 0.547809 0.198338 0.05
    endloop
  endfacet
  facet normal -0.555561 0.831476 0
    outer loop
       vertex 0.547809 0.198338 0.05
       vertex 0.575 0.216506 0.05
       vertex 0.575 0.216506 -0.05
    endloop
  endfacet
  facet normal -0.659372 0.751817 0
    outer loop
       vertex 0.547809 0.198338 -0.05
       vertex 0.523224 0.176776 -0.05
       vertex 0.523224 0.176776 0.05
    endloop
  endfacet
  facet normal -0.659372 0.751817 0
    outer loop
       vertex 0.523224 0.176776 0.05
       vertex 0.547809 0.198338 0.05
       vertex 0.547809 0.198338 -0.05
    endloop
  endfacet
  facet normal -0.751817 0.659372 0
    outer loop
       vertex 0.523224 0.176776 -0.05
       vertex 0.501662 0.152191 -0.05
       vertex 0.501662 0.152191 0.05
    endloop
  endfacet
  facet normal -0.751817 0.659372 0
    outer loop
       vertex 0.501662 0.152191 0.05
       vertex 0.523224 0.176776 0.05
       vertex 0.523224 0.176776 -0.05
    endloop
  endfacet
  facet normal -0.831476 0.555561 0
    outer loop
       vertex 0.501662 0.152191 -0.05
       vertex 0.483494 0.125 -0.05
       vertex 0.483494 0.125 0.05
    endloop
  endfacet
  facet normal -0.831476 0.555561 0
    outer loop
       vertex 0.483494 0.125 0.05
       vertex 0.501662 0.152191 0.05
       vertex 0.501662 0.152191 -0.05
    endloop
  endfacet
  facet normal -0.896866 0.442302 0
    outer loop
       vertex 0.483494 0.125 -0.05
       vertex 0.46903 0.095671 -0.05
       vertex 0.46903 0.095671 0.05
    endloop
  endfacet
  facet normal -0.896866 0.442302 0
    outer loop
       vertex 0.46903 0.095671 0.05
       vertex 0.483494 0.125 0.05
       vertex 0.483494 0.125 -0.05
    endloop
  endfacet
  facet normal -0.946935 0.321425 0
    outer loop
       vertex 0.46903 0.095671 -0.05
       vertex 0.458519 0.064705 -0.05
       vertex 0.458519 0.064705 0.05
    endloop
  endfacet
  facet normal -0.946935 0.321425 0
    outer loop
       vertex 0.458519 0.064705 0.05
       vertex 0.46903 0.095671 0.05
       vertex 0.46903 0.095671 -0.05
    endloop
  endfacet
  facet normal -0.980784 0.195096 0
    outer loop
       vertex 0.458519 0.064705 -0.05
       vertex 0.452139 0.0326315 -0.05
       vertex 0.452139 0.0326315 0.05
    endloop
  endfacet
  facet normal -0.980784 0.195096 0
    outer loop
       vertex 0.452139 0.0326315 0.05
       vertex 0.458519 0.064705 0.05
       vertex 0.458519 0.064705 -0.05
    endloop
  endfacet
  facet normal -0.997858 0.0654098 0
    outer loop
       vertex 0.45 8.32665e-17 0.05
       vertex 0.452139 0.0326315 0.05
       vertex 0.452139 0.0326315 -0.05
    endloop
  endfacet
  facet normal -0.997858 0.0654098 -1.07752e-16
    outer loop
       vertex 0.452139 0.0326315 -0.05
       vertex 0.45 -8.32665e-17 -0.05
       vertex 0.45 8.32665e-17 0.05
    endloop
  endfacet
  facet normal -0.997858 -0.0654098 0
    outer loop
       vertex 0.45 -8.32665e-17 -0.05
       vertex 0.452139 -0.0326315 -0.05
       vertex 0.452139 -0.0326315 0.05
    endloop
  endfacet
  facet normal -0.997858 -0.0654098 1.07752e-16
    outer loop
       vertex 0.452139 -0.0326315 0.05
       vertex 0.45 8.32665e-17 0.05
       vertex 0.45 -8.32665e-17 -0.05
    endloop
  endfacet
  facet normal -0.980784 -0.195096 0
    outer loop
       vertex 0.452139 -0.0326315 -0.05
       vertex 0.458519 -0.064705 -0.05
       vertex 0.458519 -0.064705 0.05
    endloop
  endfacet
  facet normal -0.980784 -0.195096 0
    outer loop
       vertex 0.458519 -0.064705 0.05
       vertex 0.452139 -0.0326315 0.05
       vertex 0.452139 -0.0326315 -0.05
    endloop
  endfacet
  facet normal -0.946935 -0.321425 0
    outer loop
       vertex 0.458519 -0.064705 -0.05
       vertex 0.46903 -0.095671 -0.05
       vertex 0.46903 -0.095671 0.05
    endloop
  endfacet
  facet normal -0.946935 -0.321425 0
    outer loop
       vertex 0.46903 -0.095671 0.05
       vertex 0.458519 -0.064705 0.05
       vertex 0.458519 -0.064705 -0.05
    endloop
  endfacet
  facet normal -0.896866 -0.442302 0
    outer loop
       vertex 0.46903 -0.095671 -0.05
       vertex 0.483494 -0.125 -0.05
       vertex 0.483494 -0.125 0.05
    endloop
  endfacet
  facet normal -0.896866 -0.442302 0
    outer loop
       vertex 0.483494 -0.125 0.05
       vertex 0.46903 -0.095671 0.05
       vertex 0.46903 -0.095671 -0.05
    endloop
  endfacet
  facet normal -0.831476 -0.555561 0
    outer loop
       vertex 0.483494 -0.125 -0.05
       vertex 0.501662 -0.152191 -0.05
       vertex 0.501662 -0.152191 0.05
    endloop
  endfacet
  facet normal -0.831476 -0.555561 0
    outer loop
       vertex 0.501662 -0.152191 0.05
       vertex 0.483494 -0.125 0.05
       vertex 0.483494 -0.125 -0.05
    endloop
  endfacet
  facet normal -0.751817 -0.659372 0
    outer loop
       vertex 0.501662 -0.152191 -0.05
       vertex 0.523224 -0.176776 -0.05
       vertex 0.523224 -0.176776 0.05
    endloop
  endfacet
  facet normal -0.751817 -0.659372 0
    outer loop
       vertex 0.523224 -0.176776 0.05
       vertex 0.501662 -0.152191 0.05
       vertex 0.501662 -0.152191 -0.05
    endloop
  endfacet
  facet normal 0.659372 -0.751817 0
    outer loop
       vertex 0.876776 -0.176776 -0.05
       vertex 0.876776 -0.176776 0.05
       vertex 0.852191 -0.198338 0.05
    endloop
  endfacet
  facet normal 0.659372 -0.751817 0
    outer loop
       vertex 0.852191 -0.198338 0.05
       vertex 0.852191 -0.198338 -0.05
       vertex 0.876776 -0.176776 -0.05
    endloop
  endfacet
  facet normal 0.555561 -0.831476 0
    outer loop
       vertex 0.852191 -0.198338 -0.05
       vertex 0.852191 -0.198338 0.05
       vertex 0.825 -0.216506 0.05
    endloop
  endfacet
  facet normal 0.555561 -0.831476 0
    outer loop
       vertex 0.825 -0.216506 0.05
       vertex 0.825 -0.216506 -0.05
       vertex 0.852191 -0.198338 -0.05
    endloop
  endfacet
  facet normal 0.442302 -0.896866 0
    outer loop
       vertex 0.825 -0.216506 -0.05
       vertex 0.825 -0.216506 0.05
       vertex 0.795671 -0.23097 0.05
    endloop
  endfacet
  facet normal 0.442302 -0.896866 0
    outer loop
       vertex 0.795671 -0.23097 0.05
       vertex 0.795671 -0.23097 -0.05
       vertex 0.825 -0.216506 -0.05
    endloop
  endfacet
  facet normal 0.321425 -0.946935 0
    outer loop
       vertex 0.795671 -0.23097 -0.05
       vertex 0.795671 -0.23097 0.05
       vertex 0.764705 -0.241481 0.05
    endloop
  endfacet
  facet normal 0.321425 -0.946935 0
    outer loop
       vertex 0.764705 -0.241481 0.05
       vertex 0.764705 -0.241481 -0.05
       vertex 0.795671 -0.23097 -0.05
    endloop
  endfacet
  facet normal 0.195096 -0.980784 0
    outer loop
       vertex 0.764705 -0.241481 -0.05
       vertex 0.764705 -0.241481 0.05
       vertex 0.732632 -0.247861 0.05
    endloop
  endfacet
  facet normal 0.195096 -0.980784 0
    outer loop
       vertex 0.732632 -0.247861 0.05
       vertex 0.732632 -0.247861 -0.05
       vertex 0.764705 -0.241481 -0.05
    endloop
  endfacet
  facet normal 0.0654098 -0.997858 0
    outer loop
       vertex 0.7 -0.25 -0.05
       vertex 0.732632 -0.247861 -0.05
       vertex 0.732632 -0.247861 0.05
    endloop
  endfacet
  facet normal 0.0654098 -0.997858 1.49195e-16
    outer loop
       vertex 0.732632 -0.247861 0.05
       vertex 0.7 -0.25 0.05
       vertex 0.7 -0.25 -0.05
    endloop
  endfacet
  facet normal -0.0654098 -0.997858 0
    outer loop
       vertex 0.7 -0.25 0.05
       vertex 0.667368 -0.247861 0.05
       vertex 0.667368 -0.247861 -0.05
    endloop
  endfacet
  facet normal -0.0654098 -0.997858 -1.49195e-16
    outer loop
       vertex 0.667368 -0.247861 -0.05
       vertex 0.7 -0.25 -0.05
       vertex 0.7 -0.25 0.05
    endloop
  endfacet
  facet normal -0.195096 -0.980784 0
    outer loop
       vertex 0.667368 -0.247861 -0.05
       vertex 0.667368 -0.247861 0.05
       vertex 0.635295 -0.241481 0.05
    endloop
  endfacet
  facet normal -0.195096 -0.980784 -0
    outer loop
       vertex 0.635295 -0.241481 0.05
       vertex 0.635295 -0.241481 -0.05
       vertex 0.667368 -0.247861 -0.05
    endloop
  endfacet
  facet normal -0.321425 -0.946935 0
    outer loop
       vertex 0.635295 -0.241481 -0.05
       vertex 0.635295 -0.241481 0.05
       vertex 0.604329 -0.23097 0.05
    endloop
  endfacet
  facet normal -0.321425 -0.946935 -0
    outer loop
       vertex 0.604329 -0.23097 0.05
       vertex 0.604329 -0.23097 -0.05
       vertex 0.635295 -0.241481 -0.05
    endloop
  endfacet
  facet normal -0.442302 -0.896866 0
    outer loop
       vertex 0.604329 -0.23097 -0.05
       vertex 0.604329 -0.23097 0.05
       vertex 0.575 -0.216506 0.05
    endloop
  endfacet
  facet normal -0.442302 -0.896866 -0
    outer loop
       vertex 0.575 -0.216506 0.05
       vertex 0.575 -0.216506 -0.05
       vertex 0.604329 -0.23097 -0.05
    endloop
  endfacet
  facet normal -0.555561 -0.831476 0
    outer loop
       vertex 0.575 -0.216506 -0.05
       vertex 0.575 -0.216506 0.05
       vertex 0.547809 -0.198338 0.05
    endloop
  endfacet
  facet normal -0.555561 -0.831476 -0
    outer loop
       vertex 0.547809 -0.198338 0.05
       vertex 0.547809 -0.198338 -0.05
       vertex 0.575 -0.216506 -0.05
    endloop
  endfacet
  facet normal -0.659372 -0.751817 0
    outer loop
       vertex 0.547809 -0.198338 -0.05
       vertex 0.547809 -0.198338 0.05
       vertex 0.523224 -0.176776 0.05
    endloop
  endfacet
  facet normal -0.659372 -0.751817 -0
    outer loop
       vertex 0.523224 -0.176776 0.05
       vertex 0.523224 -0.176776 -0.05
       vertex 0.547809 -0.198338 -0.05
    endloop
  endfacet
endsolid cylinder
